<svg width="200" height="200" viewBox="0 0 200 200" xmlns="http://www.w3.org/2000/svg">
  <!-- Bloom Pantry — Logo C: Round App Icon Badge -->

  <!-- Outer ring -->
  <circle cx="100" cy="100" r="96" fill="#496bbf"/>
  <!-- Inner bg -->
  <circle cx="100" cy="100" r="86" fill="#2f3e46"/>

  <!-- Bloom petals (outer) -->
  <ellipse cx="100" cy="100" rx="9" ry="20" fill="#9fbca5"/>
  <ellipse cx="100" cy="100" rx="9" ry="20" fill="#9fbca5" transform="rotate(60  100 100)"/>
  <ellipse cx="100" cy="100" rx="9" ry="20" fill="#9fbca5" transform="rotate(120 100 100)"/>
  <!-- Bloom petals (inner) -->
  <ellipse cx="100" cy="100" rx="6" ry="14" fill="#6d9c90" transform="rotate(30  100 100)"/>
  <ellipse cx="100" cy="100" rx="6" ry="14" fill="#6d9c90" transform="rotate(90  100 100)"/>
  <ellipse cx="100" cy="100" rx="6" ry="14" fill="#6d9c90" transform="rotate(150 100 100)"/>
  <!-- Centre -->
  <circle cx="100" cy="100" r="12" fill="#d5dcd1"/>
  <circle cx="100" cy="100" r="6"  fill="#496bbf"/>

  <!-- Mini shelf arc below bloom -->
  <path d="M72,118 Q100,130 128,118" fill="none" stroke="#d5dcd1" stroke-width="3.5" stroke-linecap="round"/>
  <line x1="70"  y1="118" x2="70"  y2="130" stroke="#d5dcd1" stroke-width="3" stroke-linecap="round"/>
  <line x1="130" y1="118" x2="130" y2="130" stroke="#d5dcd1" stroke-width="3" stroke-linecap="round"/>
</svg>
